<svg id="logo_lockups" data-name="logo lockups" xmlns="http://www.w3.org/2000/svg" viewBox="0 0 550 200"><defs><style>.cls-1{fill:#00363d;}.cls-2{fill:#eb6651;}</style></defs><title>connect_horizontal</title><rect class="cls-1" x="283.75" y="24" width="20.53" height="20.53" transform="translate(167.41 301.83) rotate(-71.33)"/><polygon class="cls-2" points="262 56 262 35 243 35 243 53.78 243 74 262.19 74 280 74 280 56 262 56"/><path class="cls-1" d="M195.3,160.64a11.12,11.12,0,0,0,7.9-3.07l3.92,4.22c-2.59,2.66-6.17,4.63-11.75,4.63-9.56,0-15.73-6.34-15.73-14.92a14.63,14.63,0,0,1,14.87-14.92c9.49,0,14.87,7.22,14.4,17.24H186.47c.8,4.16,3.72,6.81,8.83,6.81m6.84-11.58c-.6-3.88-2.92-6.74-7.57-6.74a7.71,7.71,0,0,0-8.1,6.74Z"/><polygon class="cls-1" points="48 160.33 65.27 142.79 48.41 142.79 48.41 137.29 73.27 137.29 73.27 142.91 56 160.45 73.5 160.45 73.5 165.95 48 165.95 48 160.33"/><path class="cls-1" d="M92.89,160.64a11.12,11.12,0,0,0,7.9-3.07l3.92,4.22c-2.59,2.66-6.17,4.63-11.75,4.63-9.56,0-15.73-6.34-15.73-14.92a14.63,14.63,0,0,1,14.87-14.92c9.49,0,14.87,7.22,14.4,17.24H84.06c.8,4.16,3.72,6.81,8.83,6.81m6.84-11.58c-.6-3.88-2.92-6.74-7.57-6.74a7.71,7.71,0,0,0-8.1,6.74Z"/><path class="cls-1" d="M143.77,151.53c0-9.17,6.85-14.9,14.39-14.9a12.41,12.41,0,0,1,9.55,4.3V124h6.1v41.85h-6.1v-4a12.26,12.26,0,0,1-9.61,4.53,14.45,14.45,0,0,1-14.33-14.9m24.29-.06a9.1,9.1,0,1,0-9.09,9.34,9.07,9.07,0,0,0,9.09-9.34"/><path class="cls-1" d="M212.88,159.79l5.52-2.87a8.2,8.2,0,0,0,7.37,4.18c3.45,0,5.24-1.77,5.24-3.78,0-2.29-3.34-2.81-7-3.55-4.89-1-10-2.64-10-8.54,0-4.53,4.31-8.71,11.11-8.66,5.35,0,9.32,2.12,11.57,5.56l-5.12,2.81a7.43,7.43,0,0,0-6.45-3.27c-3.28,0-4.95,1.61-4.95,3.44,0,2.06,2.65,2.64,6.79,3.55,4.72,1,10.07,2.58,10.07,8.54,0,4-3.45,9.29-11.63,9.23-6,0-10.19-2.41-12.6-6.65"/><polygon class="cls-1" points="253.68 153.14 248.84 158.41 248.84 165.86 242.74 165.86 242.74 124.02 248.84 124.02 248.84 151.42 261.79 137.2 269.22 137.2 257.99 149.47 269.51 165.86 262.6 165.86 253.68 153.14"/><path class="cls-1" d="M125.34,136.62c-7.25,0-13.32,4.7-13.32,12.5v16.74h6.22v-16c0-4.7,2.7-7.51,7.31-7.51s6.91,2.81,6.91,7.51v16h6.22V149.12c0-7.8-6.07-12.5-13.32-12.5"/><path class="cls-1" d="M287.66,151.51a14.73,14.73,0,0,1,14.95-14.89,14.41,14.41,0,0,1,13.57,8.76l-5.5,2.35a8.54,8.54,0,0,0-8.08-5.38,8.93,8.93,0,0,0-8.94,9.16,9,9,0,0,0,9,9.16,8.62,8.62,0,0,0,8.08-5.61l5.56,2.35a14.45,14.45,0,0,1-13.75,9A14.77,14.77,0,0,1,287.66,151.51Z"/><path class="cls-1" d="M319.62,151.51a14.86,14.86,0,1,1,14.84,14.89A14.74,14.74,0,0,1,319.62,151.51Zm23.66,0a8.8,8.8,0,1,0-8.82,9.16A9,9,0,0,0,343.28,151.51Z"/><path class="cls-1" d="M354.67,137.19h6.07v3.72a10.7,10.7,0,0,1,8.82-4.3c7.22,0,11.63,4.7,11.63,12.49v16.73H375V149.62c0-4.7-2.35-7.68-6.93-7.68-4.12,0-7.27,3.09-7.27,8.13v15.75h-6.13Z"/><path class="cls-1" d="M387.76,137.19h6.07v3.72a10.7,10.7,0,0,1,8.82-4.3c7.22,0,11.63,4.7,11.63,12.49v16.73h-6.19V149.62c0-4.7-2.35-7.68-6.93-7.68-4.12,0-7.27,3.09-7.27,8.13v15.75h-6.13Z"/><path class="cls-1" d="M419.46,151.62a14.75,14.75,0,0,1,14.89-15c8.48,0,14.72,6.13,14.72,14.61v2.41H425.36c.8,4.41,4.24,7.33,9.22,7.33a9,9,0,0,0,8.36-5.16l5,2.81a14.47,14.47,0,0,1-13.4,7.79C425.53,166.4,419.46,159.93,419.46,151.62Zm6.19-3.21h17.18c-.92-4.12-4.07-6.42-8.48-6.42A8.9,8.9,0,0,0,425.64,148.42Z"/><path class="cls-1" d="M453.08,151.51A14.73,14.73,0,0,1,468,136.62a14.41,14.41,0,0,1,13.57,8.76l-5.5,2.35a8.54,8.54,0,0,0-8.08-5.38,8.93,8.93,0,0,0-8.94,9.16,9,9,0,0,0,9,9.16,8.62,8.62,0,0,0,8.08-5.61l5.56,2.35a14.45,14.45,0,0,1-13.75,9A14.77,14.77,0,0,1,453.08,151.51Z"/><path class="cls-1" d="M484.87,137.19h4.87v-6.76l6.19-3.38v10.14H502v5.5h-6.07v11.4c0,5.16.8,6,6.07,6v5.79h-.92c-8.71,0-11.34-2.75-11.34-11.68V142.69h-4.87Z"/></svg>