<svg id="logo_lockups" data-name="logo lockups" xmlns="http://www.w3.org/2000/svg" viewBox="0 0 580 580"><defs><style>.cls-1{fill:#00363d;}.cls-2{fill:#eb6651;}</style></defs><title>connect_zendesk vertical</title><rect class="cls-1" x="223.73" y="46.9" width="88.97" height="88.97" transform="translate(95.76 316.21) rotate(-71.33)"/><polygon class="cls-2" points="127 173.11 127 89.11 40 89.11 40 175.96 40 257.11 127.25 257.11 211 257.11 211 173.11 127 173.11"/><path class="cls-1" d="M40.14,481.13a25.54,25.54,0,0,1,25.92-25.82c11,0,19.76,6.26,23.54,15.19l-9.53,4.07a14.81,14.81,0,0,0-14-9.34c-8.84,0-15.49,7.05-15.49,15.89A15.64,15.64,0,0,0,66.26,497c6.75,0,11.72-4.17,14-9.73l9.63,4.07A25,25,0,0,1,66.06,507,25.6,25.6,0,0,1,40.14,481.13Z"/><path class="cls-1" d="M95.55,481.13A25.77,25.77,0,1,1,121.28,507,25.56,25.56,0,0,1,95.55,481.13Zm41,0c0-8.74-6.75-15.89-15.29-15.89s-15.19,7.15-15.19,15.89S112.73,497,121.28,497,136.57,489.87,136.57,481.13Z"/><path class="cls-1" d="M156.32,456.3h10.53v6.46a18.55,18.55,0,0,1,15.29-7.45c12.51,0,20.16,8.14,20.16,21.65v29H191.58v-28.1c0-8.14-4.07-13.31-12-13.31-7.15,0-12.61,5.36-12.61,14.1V506H156.32Z"/><path class="cls-1" d="M213.68,456.3h10.53v6.46a18.55,18.55,0,0,1,15.29-7.45c12.51,0,20.16,8.14,20.16,21.65v29H248.94v-28.1c0-8.14-4.07-13.31-12-13.31-7.15,0-12.61,5.36-12.61,14.1V506H213.68Z"/><path class="cls-1" d="M268.65,481.33a25.57,25.57,0,0,1,25.82-26c14.7,0,25.52,10.63,25.52,25.32v4.17H278.88c1.39,7.65,7.35,12.71,16,12.71a15.57,15.57,0,0,0,14.5-8.94l8.74,4.87c-4.37,8.14-12.21,13.51-23.24,13.51C279.18,507,268.65,495.73,268.65,481.33Zm10.73-5.56h29.79c-1.59-7.15-7.05-11.12-14.7-11.12A15.44,15.44,0,0,0,279.38,475.77Z"/><path class="cls-1" d="M326.94,481.13a25.54,25.54,0,0,1,25.92-25.82c11,0,19.76,6.26,23.54,15.19l-9.53,4.07a14.81,14.81,0,0,0-14-9.34c-8.84,0-15.49,7.05-15.49,15.89A15.64,15.64,0,0,0,353.05,497c6.75,0,11.72-4.17,14-9.73l9.63,4.07A25,25,0,0,1,352.85,507,25.6,25.6,0,0,1,326.94,481.13Z"/><path class="cls-1" d="M382.06,456.3h8.44V444.59l10.73-5.86V456.3h10.53v9.53H401.23V485.6c0,8.94,1.39,10.33,10.53,10.33v10h-1.59c-15.1,0-19.66-4.77-19.66-20.26V465.84h-8.44Z"/><path class="cls-1" d="M295.52,404.35A19.27,19.27,0,0,0,309.22,399l6.79,7.32c-4.49,4.61-10.7,8-20.37,8-16.57,0-27.27-11-27.27-25.87a25.37,25.37,0,0,1,25.77-25.87c16.46,0,25.78,12.52,25,29.89H280.22c1.38,7.21,6.44,11.81,15.3,11.81m11.85-20.08c-1-6.73-5.06-11.69-13.12-11.69-7.48,0-12.66,4.25-14,11.69Z"/><polygon class="cls-1" points="40.14 403.81 70.08 373.4 40.84 373.4 40.84 363.86 83.95 363.86 83.95 373.6 54.01 404.01 84.35 404.01 84.35 413.55 40.14 413.55 40.14 403.81"/><path class="cls-1" d="M118,404.35A19.27,19.27,0,0,0,131.65,399l6.79,7.32c-4.49,4.61-10.7,8-20.37,8-16.57,0-27.27-11-27.27-25.87a25.37,25.37,0,0,1,25.77-25.87c16.46,0,25.78,12.52,25,29.89H102.66c1.38,7.21,6.44,11.81,15.3,11.81m11.85-20.08c-1-6.73-5.06-11.69-13.12-11.69-7.48,0-12.66,4.25-14,11.69Z"/><path class="cls-1" d="M206.18,388.55c0-15.9,11.87-25.84,24.95-25.84,6.59,0,12.88,2.88,16.57,7.46V340.85h10.58V413.4H247.7v-6.86A21.25,21.25,0,0,1,231,414.39c-12.67,0-24.85-10-24.85-25.84m42.11-.1c0-8.84-6.69-16.1-15.77-16.1a15.73,15.73,0,0,0-15.77,16.1c0,9,6.88,16.2,15.77,16.2,9.08,0,15.77-7.26,15.77-16.2"/><path class="cls-1" d="M326,402.86l9.58-5a14.22,14.22,0,0,0,12.77,7.25c6,0,9.08-3.08,9.08-6.56,0-4-5.79-4.87-12.07-6.16-8.48-1.79-17.26-4.57-17.26-14.81,0-7.85,7.48-15.11,19.26-15,9.28,0,16.17,3.68,20.06,9.64l-8.88,4.87a12.89,12.89,0,0,0-11.17-5.67c-5.69,0-8.58,2.78-8.58,6,0,3.58,4.59,4.57,11.78,6.16,8.18,1.79,17.46,4.47,17.46,14.81,0,6.86-6,16.1-20.16,16-10.38,0-17.66-4.17-21.85-11.53"/><polygon class="cls-1" points="396.74 391.34 388.35 400.48 388.35 413.4 377.78 413.4 377.78 340.85 388.35 340.85 388.35 388.35 410.81 363.71 423.68 363.71 404.22 384.98 424.18 413.4 412.2 413.4 396.74 391.34"/><path class="cls-1" d="M174.22,362.7c-12.57,0-23.1,8.15-23.1,21.67v29h10.78V385.71c0-8.15,4.69-13,12.67-13s12,4.88,12,13V413.4h10.78v-29c0-13.52-10.53-21.67-23.1-21.67"/></svg>