<svg id="logo_lockups" data-name="logo lockups" xmlns="http://www.w3.org/2000/svg" viewBox="0 0 550 100"><defs><style>.cls-1{fill:#00363d;}</style></defs><title>connect_wordmark</title><path class="cls-1" d="M195.3,65.42a11.12,11.12,0,0,0,7.9-3.07l3.92,4.22c-2.59,2.66-6.17,4.63-11.75,4.63-9.56,0-15.73-6.34-15.73-14.92A14.63,14.63,0,0,1,194.5,41.36c9.49,0,14.87,7.22,14.4,17.24H186.47c.8,4.16,3.72,6.81,8.83,6.81m6.84-11.58c-.6-3.88-2.92-6.74-7.57-6.74a7.71,7.71,0,0,0-8.1,6.74Z"/><polygon class="cls-1" points="48 65.11 65.27 47.57 48.41 47.57 48.41 42.06 73.27 42.06 73.27 47.68 56 65.22 73.5 65.22 73.5 70.72 48 70.72 48 65.11"/><path class="cls-1" d="M92.89,65.42a11.12,11.12,0,0,0,7.9-3.07l3.92,4.22c-2.59,2.66-6.17,4.63-11.75,4.63-9.56,0-15.73-6.34-15.73-14.92A14.63,14.63,0,0,1,92.09,41.36c9.49,0,14.87,7.22,14.4,17.24H84.06c.8,4.16,3.72,6.81,8.83,6.81m6.84-11.58c-.6-3.88-2.92-6.74-7.57-6.74a7.71,7.71,0,0,0-8.1,6.74Z"/><path class="cls-1" d="M143.77,56.3c0-9.17,6.85-14.9,14.39-14.9a12.41,12.41,0,0,1,9.55,4.3V28.79h6.1V70.63h-6.1v-4a12.26,12.26,0,0,1-9.61,4.53,14.45,14.45,0,0,1-14.33-14.9m24.29-.06A9.1,9.1,0,1,0,159,65.59a9.07,9.07,0,0,0,9.09-9.34"/><path class="cls-1" d="M212.88,64.56l5.52-2.87a8.2,8.2,0,0,0,7.37,4.18c3.45,0,5.24-1.77,5.24-3.78,0-2.29-3.34-2.81-7-3.55-4.89-1-10-2.64-10-8.54,0-4.53,4.31-8.71,11.11-8.66,5.35,0,9.32,2.12,11.57,5.56l-5.12,2.81a7.43,7.43,0,0,0-6.45-3.27c-3.28,0-4.95,1.61-4.95,3.44,0,2.06,2.65,2.64,6.79,3.55,4.72,1,10.07,2.58,10.07,8.54,0,4-3.45,9.29-11.63,9.23-6,0-10.19-2.41-12.6-6.65"/><polygon class="cls-1" points="253.68 57.91 248.84 63.18 248.84 70.64 242.74 70.64 242.74 28.79 248.84 28.79 248.84 56.19 261.79 41.97 269.22 41.97 257.99 54.24 269.51 70.64 262.6 70.64 253.68 57.91"/><path class="cls-1" d="M125.34,41.39c-7.25,0-13.32,4.7-13.32,12.5V70.63h6.22v-16c0-4.7,2.7-7.51,7.31-7.51s6.91,2.81,6.91,7.51v16h6.22V53.89c0-7.8-6.07-12.5-13.32-12.5"/><path class="cls-1" d="M287.66,56.28a14.73,14.73,0,0,1,14.95-14.89,14.41,14.41,0,0,1,13.57,8.76l-5.5,2.35a8.54,8.54,0,0,0-8.08-5.38,8.93,8.93,0,0,0-8.94,9.16,9,9,0,0,0,9,9.16,8.62,8.62,0,0,0,8.08-5.61l5.56,2.35a14.45,14.45,0,0,1-13.75,9A14.77,14.77,0,0,1,287.66,56.28Z"/><path class="cls-1" d="M319.62,56.28a14.86,14.86,0,1,1,14.84,14.89A14.74,14.74,0,0,1,319.62,56.28Zm23.66,0a8.8,8.8,0,1,0-8.82,9.16A9,9,0,0,0,343.28,56.28Z"/><path class="cls-1" d="M354.67,42h6.07v3.72a10.7,10.7,0,0,1,8.82-4.3c7.22,0,11.63,4.7,11.63,12.49V70.6H375V54.39c0-4.7-2.35-7.68-6.93-7.68-4.12,0-7.27,3.09-7.27,8.13V70.6h-6.13Z"/><path class="cls-1" d="M387.76,42h6.07v3.72a10.7,10.7,0,0,1,8.82-4.3c7.22,0,11.63,4.7,11.63,12.49V70.6h-6.19V54.39c0-4.7-2.35-7.68-6.93-7.68-4.12,0-7.27,3.09-7.27,8.13V70.6h-6.13Z"/><path class="cls-1" d="M419.46,56.4a14.75,14.75,0,0,1,14.89-15c8.48,0,14.72,6.13,14.72,14.61V58.4H425.36c.8,4.41,4.24,7.33,9.22,7.33a9,9,0,0,0,8.36-5.16l5,2.81a14.47,14.47,0,0,1-13.4,7.79C425.53,71.17,419.46,64.7,419.46,56.4Zm6.19-3.21h17.18c-.92-4.12-4.07-6.42-8.48-6.42A8.9,8.9,0,0,0,425.64,53.19Z"/><path class="cls-1" d="M453.08,56.28A14.73,14.73,0,0,1,468,41.39a14.41,14.41,0,0,1,13.57,8.76l-5.5,2.35A8.54,8.54,0,0,0,468,47.12a8.93,8.93,0,0,0-8.94,9.16,9,9,0,0,0,9,9.16,8.62,8.62,0,0,0,8.08-5.61l5.56,2.35a14.45,14.45,0,0,1-13.75,9A14.77,14.77,0,0,1,453.08,56.28Z"/><path class="cls-1" d="M484.87,42h4.87V35.2l6.19-3.38V42H502v5.5h-6.07v11.4c0,5.16.8,6,6.07,6V70.6h-.92c-8.71,0-11.34-2.75-11.34-11.68V47.46h-4.87Z"/></svg>