<svg id="logo_lockups" data-name="logo lockups" xmlns="http://www.w3.org/2000/svg" viewBox="0 0 550 200"><defs><style>.cls-1{fill:#eb4962;}.cls-2{fill:#00363d;}</style></defs><title>hc_horizontal</title><polygon class="cls-1" points="240.41 76.53 275 41.94 309.59 76.53 240.41 76.53"/><polygon class="cls-2" points="259.53 36.78 275.05 21.26 290.57 36.78 259.53 36.78"/><path class="cls-2" d="M153.83,161.12a11.12,11.12,0,0,0,7.9-3.07l3.92,4.22c-2.59,2.66-6.17,4.63-11.75,4.63-9.56,0-15.73-6.34-15.73-14.92A14.63,14.63,0,0,1,153,137.07c9.49,0,14.87,7.22,14.4,17.24H145c.8,4.16,3.72,6.81,8.83,6.81m6.84-11.58c-.6-3.88-2.92-6.74-7.57-6.74a7.71,7.71,0,0,0-8.1,6.74Z"/><polygon class="cls-2" points="6.54 160.81 23.8 143.27 6.94 143.27 6.94 137.77 31.81 137.77 31.81 143.39 14.54 160.93 32.04 160.93 32.04 166.43 6.54 166.43 6.54 160.81"/><path class="cls-2" d="M51.42,161.12a11.12,11.12,0,0,0,7.9-3.07l3.92,4.22c-2.59,2.66-6.17,4.63-11.75,4.63-9.56,0-15.73-6.34-15.73-14.92a14.63,14.63,0,0,1,14.87-14.92c9.49,0,14.87,7.22,14.4,17.24H42.6c.8,4.16,3.72,6.81,8.83,6.81m6.84-11.58c-.6-3.88-2.92-6.74-7.57-6.74a7.71,7.71,0,0,0-8.1,6.74Z"/><path class="cls-2" d="M102.31,152c0-9.17,6.85-14.9,14.39-14.9a12.41,12.41,0,0,1,9.55,4.3V124.5h6.1v41.85h-6.1v-4a12.26,12.26,0,0,1-9.61,4.53A14.45,14.45,0,0,1,102.31,152M126.6,152a9.1,9.1,0,1,0-9.09,9.34A9.07,9.07,0,0,0,126.6,152"/><path class="cls-2" d="M171.41,160.27l5.52-2.87a8.2,8.2,0,0,0,7.37,4.18c3.45,0,5.24-1.77,5.24-3.78,0-2.29-3.34-2.81-7-3.55-4.89-1-10-2.64-10-8.54,0-4.53,4.31-8.71,11.11-8.66,5.35,0,9.32,2.12,11.57,5.56l-5.12,2.81a7.43,7.43,0,0,0-6.45-3.27c-3.28,0-4.95,1.61-4.95,3.44,0,2.06,2.65,2.64,6.79,3.55,4.72,1,10.07,2.58,10.07,8.54,0,4-3.45,9.29-11.63,9.23-6,0-10.19-2.41-12.6-6.65"/><polygon class="cls-2" points="212.21 153.62 207.38 158.89 207.38 166.34 201.28 166.34 201.28 124.5 207.38 124.5 207.38 151.9 220.33 137.68 227.75 137.68 216.53 149.95 228.04 166.34 221.13 166.34 212.21 153.62"/><path class="cls-2" d="M83.87,137.1c-7.25,0-13.32,4.7-13.32,12.5v16.74h6.22v-16c0-4.7,2.7-7.51,7.31-7.51S91,145.67,91,150.37v16h6.22V149.6c0-7.8-6.07-12.5-13.32-12.5"/><path class="cls-2" d="M249.46,123.44h6.14v17a11.14,11.14,0,0,1,8.92-4.23c7.3,0,11.76,4.75,11.76,12.63v16.91H270V149.39c0-4.81-2.32-7.82-7-7.82-4.11,0-7.3,3.13-7.3,8.23v15.93h-6.2Z"/><path class="cls-2" d="M281.06,151.36a14.91,14.91,0,0,1,15.06-15.18c8.57,0,14.89,6.2,14.89,14.77v2.43H287c.81,4.46,4.29,7.41,9.33,7.41a9.08,9.08,0,0,0,8.46-5.21l5.1,2.84a14.64,14.64,0,0,1-13.56,7.88C287.2,166.3,281.06,159.76,281.06,151.36Zm6.26-3.24h17.38c-.93-4.17-4.11-6.49-8.57-6.49A9,9,0,0,0,287.32,148.11Z"/><path class="cls-2" d="M316,123.44h6.2v42.29H316Z"/><path class="cls-2" d="M334.6,162.13V179h-6.14V136.76h6.14v4.06a12.2,12.2,0,0,1,9.67-4.63c7.59,0,14.42,5.79,14.42,15.06s-7.07,15.06-14.37,15.06C340.34,166.3,336.69,164.79,334.6,162.13Zm18-10.95a9.16,9.16,0,1,0-9.15,9.44A9.15,9.15,0,0,0,352.56,151.18Z"/><path class="cls-2" d="M374,151.24a14.9,14.9,0,0,1,15.12-15.06A14.58,14.58,0,0,1,402.84,145l-5.56,2.37a8.64,8.64,0,0,0-8.17-5.44,9,9,0,0,0-9,9.27,9.12,9.12,0,0,0,9.15,9.27,8.72,8.72,0,0,0,8.17-5.68l5.62,2.38a14.61,14.61,0,0,1-13.9,9.09A14.93,14.93,0,0,1,374,151.24Z"/><path class="cls-2" d="M405.94,151.36A14.91,14.91,0,0,1,421,136.18c8.57,0,14.89,6.2,14.89,14.77v2.43h-24c.81,4.46,4.29,7.41,9.33,7.41a9.08,9.08,0,0,0,8.46-5.21l5.1,2.84a14.64,14.64,0,0,1-13.56,7.88C412.08,166.3,405.94,159.76,405.94,151.36Zm6.26-3.24h17.38c-.93-4.17-4.11-6.49-8.57-6.49A9,9,0,0,0,412.2,148.11Z"/><path class="cls-2" d="M440.83,136.76H447v3.77a10.82,10.82,0,0,1,8.92-4.34c7.3,0,11.76,4.75,11.76,12.63v16.91H461.4V149.33c0-4.75-2.37-7.76-7-7.76-4.17,0-7.36,3.13-7.36,8.23v15.93h-6.2Z"/><path class="cls-2" d="M471.12,136.76H476v-6.84l6.26-3.42v10.25h6.14v5.56H482.3v11.53c0,5.21.81,6,6.14,6v5.85h-.93c-8.81,0-11.47-2.78-11.47-11.82V142.32h-4.92Z"/><path class="cls-2" d="M491.13,151.36a14.91,14.91,0,0,1,15.06-15.18c8.57,0,14.89,6.2,14.89,14.77v2.43h-24c.81,4.46,4.29,7.41,9.33,7.41a9.08,9.08,0,0,0,8.46-5.21l5.1,2.84a14.64,14.64,0,0,1-13.56,7.88C497.27,166.3,491.13,159.76,491.13,151.36Zm6.26-3.24h17.38c-.93-4.17-4.11-6.49-8.57-6.49A9,9,0,0,0,497.39,148.11Z"/><path class="cls-2" d="M526,136.76h6.2v4.58c1.56-3,4.4-4.58,8.46-4.58h2.78v5.91H539.7c-5.27,0-7.41,2.66-7.41,8.69v14.37H526Z"/></svg>