<svg id="logo_lockups" data-name="logo lockups" xmlns="http://www.w3.org/2000/svg" viewBox="0 0 550 100"><defs><style>.cls-1{fill:#00363d;}</style></defs><title>hc_wordmark</title><path class="cls-1" d="M153.83,65.48a11.12,11.12,0,0,0,7.9-3.07l3.92,4.22c-2.59,2.66-6.17,4.63-11.75,4.63-9.56,0-15.73-6.34-15.73-14.92A14.63,14.63,0,0,1,153,41.42c9.49,0,14.87,7.22,14.4,17.24H145c.8,4.16,3.72,6.81,8.83,6.81m6.84-11.58c-.6-3.88-2.92-6.74-7.57-6.74a7.71,7.71,0,0,0-8.1,6.74Z"/><polygon class="cls-1" points="6.54 65.17 23.8 47.63 6.94 47.63 6.94 42.12 31.81 42.12 31.81 47.74 14.54 65.28 32.04 65.28 32.04 70.78 6.54 70.78 6.54 65.17"/><path class="cls-1" d="M51.42,65.48a11.12,11.12,0,0,0,7.9-3.07l3.92,4.22c-2.59,2.66-6.17,4.63-11.75,4.63-9.56,0-15.73-6.34-15.73-14.92A14.63,14.63,0,0,1,50.62,41.42c9.49,0,14.87,7.22,14.4,17.24H42.6c.8,4.16,3.72,6.81,8.83,6.81m6.84-11.58c-.6-3.88-2.92-6.74-7.57-6.74a7.71,7.71,0,0,0-8.1,6.74Z"/><path class="cls-1" d="M102.31,56.37c0-9.17,6.85-14.9,14.39-14.9a12.41,12.41,0,0,1,9.55,4.3V28.85h6.1V70.7h-6.1v-4a12.26,12.26,0,0,1-9.61,4.53,14.45,14.45,0,0,1-14.33-14.9m24.29-.06a9.1,9.1,0,1,0-9.09,9.34,9.07,9.07,0,0,0,9.09-9.34"/><path class="cls-1" d="M171.41,64.62l5.52-2.87a8.2,8.2,0,0,0,7.37,4.18c3.45,0,5.24-1.77,5.24-3.78,0-2.29-3.34-2.81-7-3.55-4.89-1-10-2.64-10-8.54,0-4.53,4.31-8.71,11.11-8.66,5.35,0,9.32,2.12,11.57,5.56l-5.12,2.81a7.43,7.43,0,0,0-6.45-3.27c-3.28,0-4.95,1.61-4.95,3.44,0,2.06,2.65,2.64,6.79,3.55,4.72,1,10.07,2.58,10.07,8.54,0,4-3.45,9.29-11.63,9.23-6,0-10.19-2.41-12.6-6.65"/><polygon class="cls-1" points="212.21 57.97 207.38 63.24 207.38 70.7 201.28 70.7 201.28 28.85 207.38 28.85 207.38 56.25 220.33 42.03 227.75 42.03 216.53 54.3 228.04 70.7 221.13 70.7 212.21 57.97"/><path class="cls-1" d="M83.87,41.46c-7.25,0-13.32,4.7-13.32,12.5V70.7h6.22v-16c0-4.7,2.7-7.51,7.31-7.51S91,50,91,54.73v16h6.22V54c0-7.8-6.07-12.5-13.32-12.5"/><path class="cls-1" d="M249.46,27.79h6.14v17a11.14,11.14,0,0,1,8.92-4.23c7.3,0,11.76,4.75,11.76,12.63V70.08H270V53.74c0-4.81-2.32-7.82-7-7.82-4.11,0-7.3,3.13-7.3,8.23V70.08h-6.2Z"/><path class="cls-1" d="M281.06,55.71a14.91,14.91,0,0,1,15.06-15.18c8.57,0,14.89,6.2,14.89,14.77v2.43H287c.81,4.46,4.29,7.41,9.33,7.41a9.08,9.08,0,0,0,8.46-5.21l5.1,2.84a14.64,14.64,0,0,1-13.56,7.88C287.2,70.65,281.06,64.11,281.06,55.71Zm6.26-3.24h17.38c-.93-4.17-4.11-6.49-8.57-6.49A9,9,0,0,0,287.32,52.47Z"/><path class="cls-1" d="M316,27.79h6.2V70.08H316Z"/><path class="cls-1" d="M334.6,66.48V83.4h-6.14V41.11h6.14v4.06a12.2,12.2,0,0,1,9.67-4.63c7.59,0,14.42,5.79,14.42,15.06s-7.07,15.06-14.37,15.06C340.34,70.65,336.69,69.15,334.6,66.48Zm18-10.95A9.16,9.16,0,1,0,343.41,65,9.15,9.15,0,0,0,352.56,55.54Z"/><path class="cls-1" d="M374,55.59a14.9,14.9,0,0,1,15.12-15.06,14.58,14.58,0,0,1,13.73,8.86l-5.56,2.37a8.64,8.64,0,0,0-8.17-5.44,9,9,0,0,0-9,9.27,9.12,9.12,0,0,0,9.15,9.27,8.72,8.72,0,0,0,8.17-5.68L403,61.56a14.61,14.61,0,0,1-13.9,9.09A14.93,14.93,0,0,1,374,55.59Z"/><path class="cls-1" d="M405.94,55.71A14.91,14.91,0,0,1,421,40.53c8.57,0,14.89,6.2,14.89,14.77v2.43h-24c.81,4.46,4.29,7.41,9.33,7.41a9.08,9.08,0,0,0,8.46-5.21l5.1,2.84a14.64,14.64,0,0,1-13.56,7.88C412.08,70.65,405.94,64.11,405.94,55.71Zm6.26-3.24h17.38C428.65,48.29,425.46,46,421,46A9,9,0,0,0,412.2,52.47Z"/><path class="cls-1" d="M440.83,41.11H447v3.77a10.82,10.82,0,0,1,8.92-4.34c7.3,0,11.76,4.75,11.76,12.63V70.08H461.4V53.68c0-4.75-2.37-7.76-7-7.76-4.17,0-7.36,3.13-7.36,8.23V70.08h-6.2Z"/><path class="cls-1" d="M471.12,41.11H476V34.28l6.26-3.42V41.11h6.14v5.56H482.3V58.2c0,5.21.81,6,6.14,6v5.85h-.93C478.7,70.08,476,67.3,476,58.26V46.67h-4.92Z"/><path class="cls-1" d="M491.13,55.71a14.91,14.91,0,0,1,15.06-15.18c8.57,0,14.89,6.2,14.89,14.77v2.43h-24c.81,4.46,4.29,7.41,9.33,7.41a9.08,9.08,0,0,0,8.46-5.21l5.1,2.84a14.64,14.64,0,0,1-13.56,7.88C497.27,70.65,491.13,64.11,491.13,55.71Zm6.26-3.24h17.38c-.93-4.17-4.11-6.49-8.57-6.49A9,9,0,0,0,497.39,52.47Z"/><path class="cls-1" d="M526,41.11h6.2v4.58c1.56-3,4.4-4.58,8.46-4.58h2.78V47H539.7c-5.27,0-7.41,2.66-7.41,8.69V70.08H526Z"/></svg>