<svg id="logo_lockups" data-name="logo lockups" xmlns="http://www.w3.org/2000/svg" viewBox="0 0 580 580"><defs><style>.cls-1{fill:#eb4962;}.cls-2{fill:#00363d;}</style></defs><title>hc_zendesk vertical</title><polygon class="cls-1" points="41.03 257.47 181.93 116.57 322.83 257.47 41.03 257.47"/><polygon class="cls-2" points="118.91 95.55 182.14 32.31 245.37 95.55 118.91 95.55"/><path class="cls-2" d="M40,433H50.64v29.43a19.31,19.31,0,0,1,15.47-7.33c12.65,0,20.39,8.24,20.39,21.89v29.33H75.55V478c0-8.34-4-13.56-12.15-13.56-7.13,0-12.65,5.42-12.65,14.26v27.62H40Z"/><path class="cls-2" d="M94.79,481.41A25.85,25.85,0,0,1,120.9,455.1c14.86,0,25.81,10.75,25.81,25.61v4.22H105.14c1.4,7.73,7.43,12.86,16.17,12.86a15.75,15.75,0,0,0,14.66-9l8.84,4.92c-4.42,8.24-12.35,13.66-23.5,13.66C105.43,507.32,94.79,496,94.79,481.41Zm10.85-5.62h30.13c-1.61-7.23-7.13-11.25-14.86-11.25A15.61,15.61,0,0,0,105.64,475.79Z"/><path class="cls-2" d="M155.45,433h10.75v73.32H155.45Z"/><path class="cls-2" d="M187.62,500.09v29.33H177V456.1h10.65v7a21.15,21.15,0,0,1,16.77-8c13.16,0,25,10,25,26.11s-12.25,26.11-24.91,26.11C197.57,507.32,191.24,504.71,187.62,500.09Zm31.13-19c0-9.14-6.93-16.27-15.87-16.27-9.14,0-15.87,7.33-15.87,16.27s6.73,16.37,15.87,16.37C211.83,497.48,218.76,490.25,218.76,481.11Z"/><path class="cls-2" d="M255.91,481.21a25.83,25.83,0,0,1,26.21-26.11c11.15,0,20,6.33,23.8,15.37l-9.64,4.12a15,15,0,0,0-14.16-9.44c-8.94,0-15.67,7.13-15.67,16.07a15.82,15.82,0,0,0,15.87,16.07c6.83,0,11.85-4.22,14.16-9.84l9.74,4.12a25.33,25.33,0,0,1-24.1,15.77A25.89,25.89,0,0,1,255.91,481.21Z"/><path class="cls-2" d="M311.31,481.41a25.85,25.85,0,0,1,26.11-26.31c14.86,0,25.81,10.75,25.81,25.61v4.22H321.66c1.4,7.73,7.43,12.86,16.17,12.86a15.75,15.75,0,0,0,14.66-9l8.84,4.92c-4.42,8.24-12.35,13.66-23.5,13.66C322,507.32,311.31,496,311.31,481.41Zm10.85-5.62h30.13c-1.61-7.23-7.13-11.25-14.86-11.25A15.61,15.61,0,0,0,322.16,475.79Z"/><path class="cls-2" d="M371.8,456.1h10.65v6.53a18.76,18.76,0,0,1,15.47-7.53c12.66,0,20.39,8.24,20.39,21.89v29.33H407.46V477.89c0-8.24-4.12-13.46-12.15-13.46-7.23,0-12.76,5.42-12.76,14.26v27.62H371.8Z"/><path class="cls-2" d="M424.31,456.1h8.54V444.25l10.85-5.92V456.1h10.65v9.64H443.69v20c0,9,1.41,10.45,10.65,10.45v10.14h-1.61c-15.27,0-19.89-4.82-19.89-20.49V465.74h-8.54Z"/><path class="cls-2" d="M459,481.41a25.85,25.85,0,0,1,26.11-26.31c14.86,0,25.81,10.75,25.81,25.61v4.22H469.36c1.4,7.73,7.43,12.86,16.17,12.86a15.75,15.75,0,0,0,14.66-9l8.84,4.92c-4.42,8.24-12.35,13.66-23.5,13.66C469.66,507.32,459,496,459,481.41Zm10.85-5.62H500c-1.61-7.23-7.13-11.25-14.86-11.25A15.61,15.61,0,0,0,469.86,475.79Z"/><path class="cls-2" d="M519.51,456.1h10.75V464c2.71-5.12,7.63-7.94,14.66-7.94h4.82v10.25h-6.53c-9.14,0-12.86,4.62-12.86,15.06v24.91H519.51Z"/><path class="cls-2" d="M295.38,403.85a19.27,19.27,0,0,0,13.69-5.32l6.79,7.32c-4.49,4.61-10.7,8-20.37,8-16.57,0-27.27-11-27.27-25.87A25.37,25.37,0,0,1,294,362.14c16.46,0,25.78,12.52,25,29.89H280.08c1.38,7.21,6.44,11.81,15.3,11.81m11.85-20.08c-1-6.73-5.06-11.69-13.12-11.69-7.48,0-12.66,4.25-14,11.69Z"/><polygon class="cls-2" points="40 403.31 69.94 372.9 40.7 372.9 40.7 363.36 83.81 363.36 83.81 373.1 53.87 403.5 84.21 403.5 84.21 413.05 40 413.05 40 403.31"/><path class="cls-2" d="M117.82,403.85a19.27,19.27,0,0,0,13.69-5.32l6.79,7.32c-4.49,4.61-10.7,8-20.37,8-16.57,0-27.27-11-27.27-25.87a25.37,25.37,0,0,1,25.77-25.87c16.46,0,25.78,12.52,25,29.89H102.52c1.38,7.21,6.44,11.81,15.3,11.81m11.85-20.08c-1-6.73-5.06-11.69-13.12-11.69-7.48,0-12.66,4.25-14,11.69Z"/><path class="cls-2" d="M206,388c0-15.9,11.87-25.84,24.95-25.84,6.59,0,12.88,2.88,16.57,7.46V340.34h10.58v72.55H247.55V406a21.25,21.25,0,0,1-16.67,7.85c-12.67,0-24.85-10-24.85-25.84m42.11-.1c0-8.84-6.69-16.1-15.77-16.1a15.73,15.73,0,0,0-15.77,16.1c0,9,6.88,16.2,15.77,16.2,9.08,0,15.77-7.26,15.77-16.2"/><path class="cls-2" d="M325.86,402.36l9.58-5a14.22,14.22,0,0,0,12.77,7.25c6,0,9.08-3.08,9.08-6.56,0-4-5.79-4.87-12.07-6.16-8.48-1.79-17.26-4.57-17.26-14.81,0-7.85,7.48-15.11,19.26-15,9.28,0,16.17,3.68,20.06,9.64l-8.88,4.87A12.89,12.89,0,0,0,347.22,371c-5.69,0-8.58,2.78-8.58,6,0,3.58,4.59,4.57,11.78,6.16,8.18,1.79,17.46,4.47,17.46,14.81,0,6.86-6,16.1-20.16,16-10.38,0-17.66-4.17-21.85-11.53"/><polygon class="cls-2" points="396.6 390.83 388.21 399.98 388.21 412.89 377.64 412.89 377.64 340.34 388.21 340.34 388.21 387.85 410.67 363.2 423.54 363.2 404.08 384.47 424.04 412.89 412.06 412.89 396.6 390.83"/><path class="cls-2" d="M174.08,362.2c-12.57,0-23.1,8.15-23.1,21.67v29h10.78V385.21c0-8.15,4.69-13,12.67-13s12,4.88,12,13v27.68h10.78v-29c0-13.52-10.53-21.67-23.1-21.67"/></svg>